<?xml version="1.0" encoding="UTF-8"?> <svg xmlns="http://www.w3.org/2000/svg" xmlns:xlink="http://www.w3.org/1999/xlink" width="80px" height="80px" viewBox="0 0 80 80" version="1.1"><!-- Generator: Sketch 61.1 (89650) - https://sketch.com --><title>Attend-an-event-ICO</title><desc>Created with Sketch.</desc><g id="Attend-an-event-ICO" stroke="none" stroke-width="1" fill="none" fill-rule="evenodd" stroke-linecap="round" stroke-linejoin="round"><g id="Group-11" transform="translate(7.805556, 7.805556)" stroke="#0083CA" stroke-width="3.5"><path d="M55.505618,6.13497753 L53.752809,6.13497753 L53.752809,8.76419101 C53.752809,10.6995843 52.1840449,12.269809 50.247191,12.269809 C48.3103371,12.269809 46.741573,10.6995843 46.741573,8.76419101 L46.741573,6.13497753 L17.5280899,6.13497753 L17.5280899,8.76419101 C17.5280899,10.6995843 15.9593258,12.269809 14.0224719,12.269809 C12.085618,12.269809 10.5168539,10.6995843 10.5168539,8.76419101 L10.5168539,6.13497753 L8.76404494,6.13497753 C3.92483146,6.13497753 0,10.0583483 0,14.8990225 L0,22.2023933 L64.2696629,22.2023933 L64.2696629,14.8990225 C64.2696629,10.0583483 60.3448315,6.13497753 55.505618,6.13497753 Z" id="Stroke-1"></path><path d="M0,22.2023933 L0,55.7978989 C0,60.638573 3.92483146,64.5619438 8.76404494,64.5619438 L55.505618,64.5619438 C60.3448315,64.5619438 64.2696629,60.638573 64.2696629,55.7978989 L64.2696629,22.2023933 L0,22.2023933 Z" id="Stroke-3"></path><path d="M14.0218876,12.2693708 C15.9587416,12.2693708 17.5275056,10.7006067 17.5275056,8.76375281 L17.5275056,3.50532584 C17.5275056,1.56993258 15.9587416,-0.000292134831 14.0218876,-0.000292134831 C12.0864944,-0.000292134831 10.5177303,1.56993258 10.5177303,3.50532584 L10.5177303,8.76375281 C10.5177303,10.7006067 12.0864944,12.2693708 14.0218876,12.2693708 Z" id="Stroke-5"></path><path d="M50.2477753,12.2693708 C52.1831685,12.2693708 53.7519326,10.7006067 53.7519326,8.76375281 L53.7519326,3.50532584 C53.7519326,1.56993258 52.1831685,-0.000292134831 50.2477753,-0.000292134831 C48.3109213,-0.000292134831 46.7421573,1.56993258 46.7421573,3.50532584 L46.7421573,8.76375281 C46.7421573,10.7006067 48.3109213,12.2693708 50.2477753,12.2693708 Z" id="Stroke-7"></path><path d="M44.7118202,34.2244719 C44.0238427,33.5364944 43.1094607,33.1581798 42.135191,33.1581798 C41.1609213,33.1581798 40.2465393,33.5364944 39.5600225,34.2244719 L28.9730562,44.8114382 L24.7122697,40.549191 C24.0228315,39.8597528 23.1084494,39.4814382 22.1341798,39.4814382 C21.1599101,39.4814382 20.2455281,39.8597528 19.5575506,40.549191 C18.8710337,41.2357079 18.4912584,42.1515506 18.4912584,43.1243596 C18.4912584,44.0971685 18.8710337,45.0130112 19.5575506,45.7009888 L26.396427,52.5398652 C27.0858652,53.2278427 28.0002472,53.6061573 28.9730562,53.6061573 C29.9458652,53.6061573 30.8617079,53.2278427 31.5482247,52.5398652 L44.7118202,39.3762697 C45.3997978,38.6897528 45.7781124,37.7739101 45.7781124,36.8011011 C45.7781124,35.8282921 45.3997978,34.9124494 44.7118202,34.2244719 Z" id="Stroke-9"></path></g></g></svg> 