<?xml version="1.0" encoding="UTF-8"?> <svg xmlns="http://www.w3.org/2000/svg" xmlns:xlink="http://www.w3.org/1999/xlink" width="56px" height="65px" viewBox="0 0 56 65" version="1.1"><!-- Generator: Sketch 60.1 (88133) - https://sketch.com --><title>Group 10</title><desc>Created with Sketch.</desc><defs><polygon id="path-1" points="0.000275998752 0 55.7629902 0 55.7629902 62.1323529 0.000275998752 62.1323529"></polygon></defs><g id="Home" stroke="none" stroke-width="1" fill="none" fill-rule="evenodd"><g transform="translate(-578.000000, -4269.000000)" id="Group-21-Copy-4"><g transform="translate(448.550417, 4085.000000)"><g id="Group-36" transform="translate(100.000000, 157.000000)"><g id="Group-10" transform="translate(29.622807, 27.500000)"><path d="M38.4983211,28.6764706 C37.6173162,28.6764706 36.9051838,27.9643382 36.9051838,27.0833333 L36.9051838,6.37254902 C36.9051838,4.64558824 35.4235662,3.18627451 33.6727083,3.18627451 C31.9409681,3.18627451 30.5326348,4.61372549 30.5326348,6.37254902 L30.5326348,27.0833333 C30.5326348,27.9643382 29.8205025,28.6764706 28.9394975,28.6764706 C28.0584926,28.6764706 27.3463603,27.9643382 27.3463603,27.0833333 L27.3463603,6.37254902 C27.3463603,2.85968137 30.1837377,0 33.6727083,0 C37.2110662,0 40.0914583,2.85968137 40.0914583,6.37254902 L40.0914583,27.0833333 C40.0914583,27.9643382 39.379326,28.6764706 38.4983211,28.6764706" id="Fill-1" fill="#0083CA"></path><path d="M46.3876961,30.2696078 C46.3335294,30.2696078 46.2777696,30.2664216 46.2220098,30.260049 C45.3457843,30.1708333 44.7101225,29.3854167 44.8025245,28.5107843 L46.4530147,12.663848 C46.4259314,7.96568627 44.0856127,7.96568627 43.3129412,7.96568627 C42.1881863,7.96568627 40.0916176,9.22107843 40.0916176,11.6219363 C40.0916176,12.501348 39.3794853,13.2150735 38.4984804,13.2150735 C37.6174755,13.2150735 36.9053431,12.501348 36.9053431,11.6219363 C36.9053431,7.21531863 40.6954167,4.77941176 43.3129412,4.77941176 C47.2750735,4.77941176 49.6392892,7.75698529 49.6392892,12.745098 C49.6392892,12.8008578 49.6361029,12.8550245 49.6297304,12.9107843 L47.9696814,28.8421569 C47.8852451,29.6594363 47.1938235,30.2696078 46.3876961,30.2696078" id="Fill-3" fill="#0083CA"></path><g id="Group-7" transform="translate(0.000000, 1.593137)"><mask id="mask-2" fill="white"><use xlink:href="#path-1"></use></mask><g id="Clip-6"></g><path d="M33.7189093,62.1323529 C31.0281005,62.1323529 17.3095956,61.552451 11.5822672,50.0993873 C8.43104167,43.79375 6.84905637,40.6297794 3.71694853,35.9332108 C1.20616422,32.163848 -0.936605392,28.5745098 0.422340686,26.0382353 C1.14721814,24.6824755 2.66707108,23.9974265 4.94366422,23.9974265 C8.80702206,23.9974265 11.2763848,26.336152 13.2598407,28.2160539 C14.3734436,29.2707108 15.4281005,30.2696078 16.1943995,30.2696078 C17.6792034,30.2696078 17.7875368,27.0992647 17.7875368,27.067402 L17.7875368,6.37254902 C17.7875368,2.85968137 20.645625,0 24.1600858,0 C27.6745466,0 30.5326348,2.85968137 30.5326348,6.37254902 C30.5326348,7.25355392 29.8205025,7.96568627 28.9394975,7.96568627 C28.0584926,7.96568627 27.3463603,7.25355392 27.3463603,6.37254902 C27.3463603,4.61372549 25.9173162,3.18627451 24.1600858,3.18627451 C22.4028554,3.18627451 20.9738113,4.61372549 20.9738113,6.37254902 L20.9738113,27.0833333 C20.959473,29.2946078 19.9430515,33.4558824 16.1943995,33.4558824 C14.156777,33.4558824 12.6560417,32.0332108 11.0676838,30.5276961 C9.33116422,28.8835784 7.53729167,27.183701 4.94366422,27.183701 C3.70101716,27.183701 3.28042892,27.4481618 3.23104167,27.5405637 C3.01756127,27.938848 3.14341912,29.3264706 6.36792892,34.1648284 C9.6083701,39.0270833 11.2222181,42.2515931 14.4339828,48.6751225 C19.3217279,58.4506127 31.3562868,58.9460784 33.7189093,58.9460784 C38.4728309,58.9460784 46.6583701,57.4676471 48.073076,47.5678922 C48.7517525,42.81875 52.2550613,19.5254902 52.576875,17.5245098 C52.5513848,16.4953431 52.2263848,14.7476716 51.3151103,14.0928922 C50.638027,13.6053922 49.6486887,13.5751225 48.3789583,14.0020833 C47.5409681,14.2840686 46.8814093,14.0865196 46.6010172,13.2517157 C46.3190319,12.4185049 46.5277328,11.2634804 47.3609436,10.9830882 C50.2222181,10.0192402 52.1021201,10.7345588 53.1743015,11.5072304 C55.0988113,12.8884804 55.7631495,15.6414216 55.7631495,17.5245098 C55.7631495,17.5245098 51.9284681,43.108701 51.2274877,48.01875 C49.3555515,61.1143382 37.3528554,62.1323529 33.7189093,62.1323529" id="Fill-5" fill="#0083CA" mask="url(#mask-2)"></path></g><path d="M27.8784681,38.2321078 C26.6007721,38.2321078 25.0012623,38.9633578 24.3432966,41.0137255 C22.9684191,45.2865196 29.8077574,49.4892157 32.0939093,50.7557598 C38.068174,47.3703431 40.8434191,43.9180147 39.9098407,41.0153186 C39.2502819,38.9633578 37.6507721,38.2321078 36.3746691,38.2321078 C34.6031005,38.2321078 33.6328799,39.2564951 33.3779779,39.5703431 C32.7741789,40.311152 31.4773652,40.311152 30.8735662,39.5703431 C30.6186642,39.2564951 29.6484436,38.2321078 27.8784681,38.2321078 M32.1257721,54.1634804 C31.8915809,54.1634804 31.6557966,54.1125 31.4359436,54.0073529 C30.9197672,53.7588235 18.8055515,47.8371324 21.3147426,40.0403186 C22.4968505,36.3585784 25.5891299,35.0522059 27.8784681,35.0522059 C29.7822672,35.0522059 31.196973,35.7436275 32.1257721,36.4238971 C33.0561642,35.7436275 34.4708701,35.0522059 36.3746691,35.0522059 C38.6640074,35.0522059 41.7546936,36.3585784 42.9383946,40.0435049 C43.975527,43.2696078 43.1455025,48.2640931 33.2919485,53.7317402 L33.0529779,53.8655637 C33.0227083,53.8894608 32.9892525,53.9117647 32.9573897,53.9308824 C32.7008946,54.0854167 32.4141299,54.1634804 32.1257721,54.1634804" id="Fill-8" fill="#0083CA"></path></g></g></g></g></g></svg> 