<?xml version="1.0" encoding="UTF-8"?> <svg xmlns="http://www.w3.org/2000/svg" xmlns:xlink="http://www.w3.org/1999/xlink" width="67px" height="61px" viewBox="0 0 67 61" version="1.1"><!-- Generator: Sketch 60.1 (88133) - https://sketch.com --><title>Group 8</title><desc>Created with Sketch.</desc><defs><polygon id="path-1" points="0.000464639316 -0.000700940132 66 -0.000700940132 66 60 0.000464639316 60"></polygon></defs><g id="Home" stroke="none" stroke-width="1" fill="none" fill-rule="evenodd"><g transform="translate(-860.000000, -4271.000000)" id="Group-21-Copy-7"><g transform="translate(735.500000, 4085.000000)"><g id="Group-36" transform="translate(98.050417, 159.000000)"><g id="Group-8" transform="translate(26.622807, 27.500000)"><path d="M28.9851,25.50075 C27.7761,25.50075 26.2656,26.19075 25.6416,28.12875 C24.3426,32.16825 30.8091,36.13875 32.9556,37.32675 C38.5941,34.13175 41.2116,30.87375 40.3281,28.12875 C39.7056,26.19075 38.1951,25.50075 36.9861,25.50075 C35.3151,25.50075 34.3941,26.46825 34.1511,26.76375 C33.8736,27.10425 33.4386,27.32625 32.9976,27.32925 C32.6091,27.35625 32.1051,27.11175 31.8216,26.76525 C31.5786,26.46825 30.6546,25.50075 28.9851,25.50075 M32.9856,40.50075 C32.7666,40.50075 32.5476,40.45125 32.3436,40.35375 C31.8576,40.11975 20.4636,34.55025 22.8216,27.22125 C23.9331,23.76375 26.8356,22.53525 28.9851,22.53525 C30.7791,22.53525 32.1126,23.19225 32.9856,23.83425 C33.8601,23.19225 35.1921,22.53525 36.9861,22.53525 C39.1356,22.53525 42.0381,23.76375 43.1496,27.22275 C44.1261,30.25725 43.3416,34.95525 34.0731,40.09725 L33.8466,40.22175 C33.8196,40.24275 33.7881,40.26375 33.7596,40.28175 C33.5211,40.42725 33.2556,40.50075 32.9856,40.50075" id="Fill-1" fill="#0083CA"></path><path d="M33.00015,13.50075 C26.38365,13.50075 21.00015,8.78925 21.00015,3.00075 C21.00015,2.17125 21.67215,1.50075 22.50015,1.50075 C23.32815,1.50075 24.00015,2.17125 24.00015,3.00075 C24.00015,7.13625 28.03665,10.50075 33.00015,10.50075 C37.96365,10.50075 42.00015,7.13625 42.00015,3.00075 C42.00015,2.17125 42.67215,1.50075 43.50015,1.50075 C44.32815,1.50075 45.00015,2.17125 45.00015,3.00075 C45.00015,8.78925 39.61665,13.50075 33.00015,13.50075" id="Fill-3" fill="#0083CA"></path><g id="Group-7" transform="translate(0.000000, 0.000750)"><mask id="mask-2" fill="white"><use xlink:href="#path-1"></use></mask><g id="Clip-6"></g><path d="M15.00015,57 L51.00015,57 L51.00015,22.5 C51.00015,22.059 51.19365,21.6405 51.53115,21.3555 C51.86715,21.0705 52.31265,20.9505 52.74765,21.021 L60.34365,22.2855 L62.76615,11.3895 L43.85265,3.282 C41.71815,5.217 37.45215,7.5 33.00015,7.5 C28.51515,7.5 24.21765,5.1795 22.09665,3.237 L3.22515,9.9765 L5.68665,22.281 L13.25265,21.021 C13.68465,20.952 14.13315,21.0705 14.46915,21.3555 C14.80665,21.6405 15.00015,22.059 15.00015,22.5 L15.00015,57 Z M52.50015,60 L13.50015,60 C12.67215,60 12.00015,59.3295 12.00015,58.5 L12.00015,24.2715 L4.74765,25.479 C3.94515,25.62 3.18765,25.0875 3.03015,24.294 L0.03015,9.294 C-0.11685,8.565 0.29415,7.839 0.99615,7.5885 L21.99615,0.0885 C22.59165,-0.1275 23.25315,0.0585 23.65665,0.5445 C24.76065,1.881 28.75965,4.5 33.00015,4.5 C37.24515,4.5 41.24115,1.881 42.34365,0.5445 C42.76665,0.0315 43.47765,-0.1425 44.09115,0.1215 L65.09115,9.1215 C65.75415,9.4065 66.12165,10.1205 65.96415,10.8255 L62.96415,24.3255 C62.79165,25.1025 62.04165,25.617 61.25265,25.479 L54.00015,24.2715 L54.00015,58.5 C54.00015,59.3295 53.32815,60 52.50015,60 L52.50015,60 Z" id="Fill-5" fill="#0083CA" mask="url(#mask-2)"></path></g></g></g></g></g></g></svg> 