<?xml version="1.0" encoding="UTF-8"?> <svg xmlns="http://www.w3.org/2000/svg" xmlns:xlink="http://www.w3.org/1999/xlink" width="69px" height="61px" viewBox="0 0 69 61" version="1.1"><!-- Generator: Sketch 60.1 (88133) - https://sketch.com --><title>Group 32</title><desc>Created with Sketch.</desc><g id="Home" stroke="none" stroke-width="1" fill="none" fill-rule="evenodd"><g transform="translate(-292.000000, -4270.000000)" fill="#0083CA" id="Group-21-Copy-5"><g transform="translate(165.500000, 4085.000000)"><g id="Group-36" transform="translate(100.000000, 158.000000)"><g id="Group-32" transform="translate(26.622807, 27.500000)"><path d="M36.7408635,24.207883 C36.7240684,24.198722 36.7088001,24.1880342 36.692005,24.1788732 C36.6752099,24.1880342 36.6599416,24.198722 36.6446733,24.207883 C33.7528581,22.630668 22.4909631,15.8958227 24.7964758,8.063187 C25.8820516,4.36978625 28.5020911,3.05365915 30.590794,3.05365915 C33.4230629,3.05365915 35.0247071,4.89654245 35.4476389,5.45994257 C35.7346828,5.84317679 36.2141073,6.10426465 36.692005,6.10579148 C37.1699026,6.10426465 37.650854,5.84317679 37.9363711,5.45994257 C38.3608297,4.89654245 39.9609471,3.05365915 42.7947428,3.05365915 C44.8834457,3.05365915 47.5034852,4.36978625 48.5890611,8.063187 C50.8945737,15.8958227 39.6326788,22.630668 36.7408635,24.207883 M51.5175202,7.20205512 C49.9555735,1.88716136 45.8422946,-7.7649268e-14 42.7947428,-7.7649268e-14 C39.934991,-7.7649268e-14 37.9073613,1.25658074 36.692005,2.33910291 C35.4781755,1.25658074 33.4505458,-7.7649268e-14 30.590794,-7.7649268e-14 C27.5432422,-7.7649268e-14 23.4284365,1.88716136 21.8680166,7.20205512 C20.8114506,10.7855241 21.6420458,14.4346468 24.3338464,18.0471256 C28.3539887,23.4444682 35.8323999,27.4798787 36.692005,27.4829324 L36.6935318,27.4829324 C37.55161,27.4798787 45.0315481,23.4444682 49.0516904,18.0471256 C51.7419641,14.4346468 52.5725594,10.7855241 51.5175202,7.20205512" id="Fill-1"></path><path d="M67.4026551,27.2974226 L67.1400404,27.0348079 C65.4620547,25.3552954 62.5412297,24.9796953 60.4952781,26.1752029 L45.5766263,34.8766046 C43.0497234,32.7619457 37.9699613,33.1482335 34.2261752,33.4444385 C33.2688531,33.52078 32.436731,33.5894873 31.8382138,33.5894873 C28.7891351,33.5894873 24.7567782,32.1649553 24.7170806,32.1527407 C24.552183,32.0931943 24.3781244,32.0626577 24.2040659,32.0626577 C19.7732064,32.0626577 16.623357,34.3483216 14.0918736,36.1850976 C12.7971221,37.1256246 11.5741316,38.0081321 10.6870436,38.1424931 L10.6870436,41.2068401 C12.4795416,41.1152303 14.0643907,39.9777422 15.8858983,38.6570347 C18.1181232,37.0370685 20.6404456,35.2063998 23.9582463,35.1193705 C24.9858026,35.4659608 28.7143204,36.6431464 31.8382138,36.6431464 C32.5268139,36.6431464 33.4261165,36.5713855 34.4689411,36.4904635 C37.1699026,36.2736537 42.2008061,35.8736243 43.6864113,37.2462441 C43.8665772,37.4141954 44.0528504,37.6539076 44.0528504,38.169976 C44.0528504,41.6709962 35.0811998,44.2772943 33.3650433,44.2772943 L27.257725,44.2772943 C26.4133883,44.2772943 25.7308955,44.9597872 25.7308955,45.8041239 C25.7308955,46.6484607 26.4133883,47.3309535 27.257725,47.3309535 L33.3650433,47.3309535 C35.2460974,47.3309535 47.1065095,44.5750261 47.1065095,38.169976 C47.1065095,37.9577467 47.0744461,37.757732 47.04849,37.5546637 L62.0327955,28.8120375 C62.8832396,28.3188716 64.2863959,28.5005643 64.9811034,29.1937449 L65.2437181,29.4563596 C65.5185474,29.7311889 65.6620694,30.0854134 65.6529084,30.456433 C65.6437474,30.8289794 65.477323,31.1755697 65.1872254,31.4351308 L40.7304692,53.3176523 C39.7655129,54.1787841 37.7119271,54.9651014 36.4187025,54.9651014 L19.6235771,54.9651014 C18.2662256,54.9651014 16.1271374,54.2505451 15.0430884,53.4382718 L11.3786974,50.6899786 C11.1679949,50.5342419 10.9313364,50.4594273 10.6870436,50.4227834 L10.6870436,53.9894573 L13.2108929,55.8811991 C14.8079567,57.0797603 17.6249572,58.0187605 19.6235771,58.0187605 L36.4187025,58.0187605 C38.45702,58.0187605 41.2450108,56.9530335 42.765733,55.5926283 L67.2240161,33.7101068 C68.1446943,32.8856189 68.6714505,31.7603455 68.7065676,30.5419355 C68.738631,29.3219986 68.2760016,28.1707691 67.4026551,27.2974226" id="Fill-3"></path><path d="M3.05365915,56.4920836 L9.16097746,56.4920836 L9.16097746,36.6432991 L3.05365915,36.6432991 L3.05365915,56.4920836 Z M10.687807,59.5457428 L1.52682958,59.5457428 C0.682492821,59.5457428 -7.93372955e-14,58.8617231 -7.93372955e-14,58.0189132 L-7.93372955e-14,35.1164695 C-7.93372955e-14,34.2736596 0.682492821,33.58964 1.52682958,33.58964 L10.687807,33.58964 C11.5321438,33.58964 12.2146366,34.2736596 12.2146366,35.1164695 L12.2146366,58.0189132 C12.2146366,58.8617231 11.5321438,59.5457428 10.687807,59.5457428 L10.687807,59.5457428 Z" id="Fill-6"></path></g></g></g></g></g></svg> 