<?xml version="1.0" encoding="UTF-8"?> <svg xmlns="http://www.w3.org/2000/svg" xmlns:xlink="http://www.w3.org/1999/xlink" width="80px" height="80px" viewBox="0 0 80 80" version="1.1"><!-- Generator: Sketch 61.1 (89650) - https://sketch.com --><title>Partner-With-Us-ICO</title><desc>Created with Sketch.</desc><g id="Partner-With-Us-ICO" stroke="none" stroke-width="1" fill="none" fill-rule="evenodd"><path d="M38.1236899,11.3417384 L38.1236899,22.7839555 C35.4366202,22.7225601 32.7331783,22.5231958 30.078,22.1908082 C30.4682016,21.0752888 30.8986512,20.009909 31.3594574,19.0197384 C32.5749147,16.4116299 33.9685891,14.3833663 35.5021085,12.9913973 C36.358062,12.214064 37.2384031,11.6603121 38.1236899,11.3417384 L38.1236899,11.3417384 Z M28.3804186,17.6316919 L28.3804186,17.6318625 C27.7911938,18.8972888 27.2505736,20.2665756 26.7723721,21.7047617 C24.0302171,21.2420795 21.2849922,20.6262501 18.601845,19.87194 C22.3155814,15.9257539 26.9826512,13.1099245 32.1693643,11.6811183 C30.7686977,13.2388547 29.4966202,15.235909 28.3804186,17.6316919 L28.3804186,17.6316919 Z M38.1236899,26.0723586 L38.1236899,38.1237539 L27.3677364,38.1237539 C27.4932558,33.6424051 28.0923721,29.249909 29.1052248,25.3869477 C32.0694264,25.7762966 35.1009922,26.0065291 38.1236899,26.0723586 L38.1236899,26.0723586 Z M38.1236899,57.0683121 L38.1236899,68.5398625 C37.2384031,68.2212888 36.358062,67.6673663 35.501938,66.890033 C33.9684186,65.498064 32.5747442,63.4698004 31.3596279,60.8616919 C30.8962636,59.8670873 30.4627442,58.7923276 30.0687907,57.6626532 C32.7270388,57.3295834 35.4338915,57.1297074 38.1236899,57.0683121 L38.1236899,57.0683121 Z M27.3675659,41.757847 L38.1236899,41.757847 L38.1236899,53.7800795 C35.0979225,53.8457384 32.0644806,54.0764826 29.0989147,54.4661725 C28.089814,50.6083276 27.4927442,46.2258935 27.3675659,41.757847 L27.3675659,41.757847 Z M26.7635039,58.1492113 C27.2456279,59.6018935 27.7891473,60.9805601 28.3804186,62.249909 C29.4966202,64.6456919 30.7686977,66.6427462 32.1691938,68.2001415 C26.9731008,66.7682656 22.3002326,63.9447617 18.5827442,59.9856144 C21.2682791,59.2301105 24.0172558,58.6129167 26.7635039,58.1492113 L26.7635039,58.1492113 Z M25.840186,24.8903276 C24.8106202,28.9376454 24.2036589,33.5003431 24.0800155,38.1237539 L10.6898605,38.1237539 C11.0329922,32.5215989 12.967969,27.1783276 16.2974729,22.6418935 C19.4178915,23.5790253 22.625969,24.3350408 25.840186,24.8903276 L25.840186,24.8903276 Z M24.0800155,41.757847 C24.2034884,46.3705136 24.8082326,50.9234904 25.833876,54.9629632 C22.6155659,55.5194439 19.4045891,56.2763121 16.2817829,57.2149787 C12.9625116,52.6834904 11.0328217,47.3487462 10.6898605,41.757847 L24.0800155,41.757847 Z M69.1917829,38.1237539 L55.8016279,38.1237539 C55.6779845,33.5003431 55.0708527,28.9376454 54.0414574,24.8903276 C57.2555039,24.3350408 60.4635814,23.5790253 63.5841705,22.6418935 C66.9135039,27.1783276 68.8486512,32.5215989 69.1917829,38.1237539 L69.1917829,38.1237539 Z M69.1916124,41.757847 C68.8488217,47.3489167 66.9189612,52.6836609 63.5998605,57.2149787 C60.476031,56.2761415 57.2650543,55.5191028 54.0477674,54.9629632 C55.0734109,50.9231493 55.678155,46.3701725 55.8016279,41.757847 L69.1916124,41.757847 Z M41.7577829,22.7839555 L41.7577829,11.3417384 C42.6430698,11.6603121 43.5235814,12.214064 44.3795349,12.9915679 C45.9130543,14.3833663 47.3067287,16.4116299 48.521845,19.0195679 C48.9829922,20.0105911 49.4136124,21.075971 49.8034729,22.1908082 C47.1482946,22.5231958 44.4448527,22.7225601 41.7577829,22.7839555 L41.7577829,22.7839555 Z M52.513907,38.1237539 L41.7577829,38.1237539 L41.7577829,26.0723586 C44.7806512,26.0065291 47.8122171,25.7762966 50.7762481,25.3869477 C51.7891008,29.2500795 52.3883876,33.6425756 52.513907,38.1237539 L52.513907,38.1237539 Z M47.7121085,11.6811183 C52.8988217,13.1099245 57.566062,15.9257539 61.2797984,19.87194 C58.5964806,20.6262501 55.8512558,21.2420795 53.1091008,21.7047617 C52.6310698,20.2669167 52.0906202,18.8978004 51.5012248,17.6315214 C50.3850233,15.2357384 49.1129457,13.2388547 47.7121085,11.6811183 L47.7121085,11.6811183 Z M51.5012248,62.249909 C52.0923256,60.9807307 52.635845,59.602064 53.1181395,58.1492113 C55.8628527,58.6125756 58.6114884,59.2297694 61.2987287,59.9857849 C57.5814109,63.9447617 52.9083721,66.7682656 47.7124496,68.2001415 C49.1129457,66.6425756 50.3850233,64.6456919 51.5012248,62.249909 L51.5012248,62.249909 Z M41.7577829,53.7800795 L41.7577829,41.757847 L52.513907,41.757847 C52.3888992,46.2258935 51.7918295,50.6083276 50.7825581,54.4661725 C47.8161395,54.0764826 44.782186,53.8457384 41.7577829,53.7800795 L41.7577829,53.7800795 Z M49.8126822,57.6626532 C49.4188992,58.792157 48.9853798,59.8669167 48.5220155,60.8616919 C47.3067287,63.4698004 45.9130543,65.498064 44.3793643,66.8902035 C43.5235814,67.6673663 42.6432403,68.2212888 41.7577829,68.5398625 L41.7577829,57.0683121 C44.4479225,57.1297074 47.1547752,57.3295834 49.8126822,57.6626532 L49.8126822,57.6626532 Z M72.8645891,38.8741415 L72.8645891,38.8743121 C72.7366822,34.8068702 71.8711783,30.8513043 70.2922946,27.1176144 C69.3155969,24.8091493 68.0786512,22.618188 66.615907,20.6054439 C66.2434419,20.0926222 65.8523876,19.5861105 65.4534884,19.100064 C64.7609147,18.2536609 64.013938,17.4285756 63.2333643,16.6481725 C60.2087907,13.6234284 56.6862326,11.2484516 52.7637519,9.58924231 C49.030062,8.01035859 45.0748372,7.14502525 41.0075659,7.01694773 C40.3010078,6.99443611 39.5831938,6.99426556 38.8742481,7.01694773 C34.8068062,7.14502525 30.8514109,8.01035859 27.1177209,9.58924231 C23.1952403,11.2484516 19.6728527,13.6234284 16.6481085,16.6481725 C15.8675349,17.4287462 15.1207287,18.2534904 14.4288372,19.0992113 C14.0295969,19.5855989 13.6382016,20.0924516 13.265907,20.6052733 C11.8029922,22.6180175 10.5660465,24.8091493 9.58917829,27.1177849 C8.01046512,30.8513043 7.14513178,34.8066997 7.01705426,38.8738004 C7.00579845,39.2268237 7,39.585816 7,39.9407152 C7,40.2957849 7.00579845,40.6546066 7.01705426,41.0072888 C7.14513178,45.0747307 8.01046512,49.030126 9.58934884,52.763816 C11.2483876,56.6862966 13.6233643,60.2088547 16.6481085,63.2334284 C19.6730233,66.2581725 23.1954109,68.6333198 27.1178915,70.2923586 C30.8510698,71.8710718 34.8064651,72.7365756 38.8737364,72.8646532 C39.2250543,72.8757384 39.5840465,72.8815369 39.9408217,72.8815369 C40.2975969,72.8815369 40.6564186,72.8757384 41.0072248,72.8646532 C45.0750078,72.7365756 49.0305736,71.8709012 52.7637519,70.292188 C56.686062,68.6333198 60.2086202,66.2581725 63.2333643,63.2334284 C66.2581085,60.2088547 68.6330853,56.6862966 70.2924651,52.7636454 C71.8711783,49.0299555 72.7366822,45.0747307 72.8645891,41.0076299 C72.875845,40.6539245 72.8816434,40.2949322 72.8816434,39.9407152 C72.8816434,39.5866687 72.875845,39.227847 72.8645891,38.8741415 L72.8645891,38.8741415 Z" id="Fill-1" fill="#0083CA"></path></g></svg> 