<?xml version="1.0" encoding="UTF-8"?> <svg xmlns="http://www.w3.org/2000/svg" xmlns:xlink="http://www.w3.org/1999/xlink" width="80px" height="80px" viewBox="0 0 80 80" version="1.1"><!-- Generator: Sketch 61.1 (89650) - https://sketch.com --><title>Planned-Giving-ICO</title><desc>Created with Sketch.</desc><defs><polygon id="path-1" points="0 0.935 71.4048183 0.935 71.4048183 64.9997 0 64.9997"></polygon></defs><g id="Planned-Giving-ICO" stroke="none" stroke-width="1" fill="none" fill-rule="evenodd"><g id="Group-6" transform="translate(4.000000, 7.000000)"><g id="Group-3" transform="translate(0.000000, 0.064800)"><mask id="mask-2" fill="white"><use xlink:href="#path-1"></use></mask><g id="Clip-2"></g><path d="M64.6776,28.9287 L36.7796,9.7247 C36.1306,9.2777 35.2736,9.2777 34.6246,9.7247 L6.7276,28.9287 L4.5426,25.7537 L34.6106,5.0557 C35.2556,4.6127 36.1486,4.6127 36.7946,5.0557 L66.8626,25.7537 L64.6776,28.9287 Z M53.2856,54.2587 L18.1196,54.2587 L18.1196,25.6997 L35.7016,13.5957 L53.2856,25.6997 L53.2856,54.2587 Z M62.1296,59.2587 L62.1296,61.1997 L9.2766,61.1997 L9.2766,59.2587 C9.2766,58.6087 9.8266,58.0587 10.4776,58.0587 L60.9286,58.0587 C61.5796,58.0587 62.1296,58.6087 62.1296,59.2587 L62.1296,59.2587 Z M70.5816,23.7007 L38.9486,1.9257 C37.0296,0.6047 34.3736,0.6047 32.4556,1.9257 L0.8236,23.7007 C-0.0414,24.2957 -0.2604,25.4797 0.3356,26.3437 L4.6746,32.6477 C4.9606,33.0627 5.3996,33.3477 5.8946,33.4397 C6.3876,33.5297 6.9026,33.4207 7.3166,33.1357 L14.3196,28.3157 L14.3196,54.2587 L10.4776,54.2587 C7.7196,54.2587 5.4766,56.5017 5.4766,59.2587 L5.4766,63.1007 C5.4766,64.1497 6.3276,64.9997 7.3766,64.9997 L64.0296,64.9997 C65.0786,64.9997 65.9296,64.1497 65.9296,63.1007 L65.9296,59.2587 C65.9296,56.5017 63.6866,54.2587 60.9286,54.2587 L57.0856,54.2587 L57.0856,28.3157 L64.0886,33.1357 C64.4066,33.3557 64.7836,33.4707 65.1656,33.4707 C65.2816,33.4707 65.3966,33.4597 65.5106,33.4397 C66.0066,33.3477 66.4456,33.0627 66.7316,32.6477 L71.0696,26.3437 C71.6646,25.4797 71.4466,24.2957 70.5816,23.7007 L70.5816,23.7007 Z" id="Fill-1" fill="#0083CA" mask="url(#mask-2)"></path></g><path d="M37.5292,34.3675 C37.5382,34.3375 38.4322,31.3245 41.1502,31.3245 C41.4252,31.3245 41.7182,31.3525 42.0222,31.4105 C44.3302,31.8405 45.6612,33.5015 45.674289,35.9655 C45.7022,41.2265 39.1182,45.9695 35.7012,47.8655 C32.2852,45.9765 25.7052,41.2445 25.7321172,35.9655 C25.7452,33.5015 27.0762,31.8405 29.3842,31.4105 C29.6872,31.3525 29.9812,31.3245 30.2562,31.3245 C32.9252,31.3245 33.8422,34.2565 33.8762,34.3675 C34.1102,35.1815 34.8552,35.7445 35.7032,35.7445 C36.5502,35.7445 37.2962,35.1815 37.5292,34.3675 M30.2562,27.5245 C29.7482,27.5245 29.2202,27.5745 28.6882,27.6745 C24.6072,28.4355 21.9552,31.6815 21.9320673,35.9455 C21.8852,45.2345 34.3352,51.4565 34.8652,51.7175 C35.1302,51.8465 35.4162,51.9115 35.7032,51.9115 C35.9892,51.9115 36.2762,51.8465 36.5402,51.7175 C37.0702,51.4565 49.5222,45.2345 49.4733442,35.9445 C49.4512,31.6815 46.8002,28.4355 42.7182,27.6745 C42.1862,27.5745 41.6582,27.5245 41.1502,27.5245 C38.6972,27.5245 36.9082,28.6825 35.7032,30.0575 C34.4972,28.6825 32.7102,27.5245 30.2562,27.5245" id="Fill-4" fill="#0083CA"></path></g></g></svg> 